<svg width="27" height="16" viewBox="0 0 27 16" fill="none" xmlns="http://www.w3.org/2000/svg">
<path d="M1.5 6.68164C0.947715 6.68164 0.5 7.12936 0.5 7.68164C0.5 8.23393 0.947715 8.68164 1.5 8.68164V6.68164ZM26.2071 8.38875C26.5976 7.99822 26.5976 7.36506 26.2071 6.97453L19.8431 0.610573C19.4526 0.220048 18.8195 0.220048 18.4289 0.610573C18.0384 1.0011 18.0384 1.63426 18.4289 2.02479L24.0858 7.68164L18.4289 13.3385C18.0384 13.729 18.0384 14.3622 18.4289 14.7527C18.8195 15.1432 19.4526 15.1432 19.8431 14.7527L26.2071 8.38875ZM1.5 8.68164H25.5V6.68164H1.5V8.68164Z" fill="white"/>
</svg>
