<svg width="16" height="16" viewBox="0 0 16 16" fill="none" xmlns="http://www.w3.org/2000/svg">
<g clip-path="url(#clip0_207_197)">
<path d="M14.7756 0.000111865H1.22361C1.07127 -0.00200383 0.920008 0.0259099 0.77846 0.0822589C0.636912 0.138608 0.50785 0.222288 0.398645 0.328521C0.289441 0.434755 0.202233 0.561459 0.142001 0.7014C0.0817693 0.84134 0.0496941 0.991774 0.0476074 1.14411V14.8561C0.0496941 15.0084 0.0817693 15.1589 0.142001 15.2988C0.202233 15.4388 0.289441 15.5655 0.398645 15.6717C0.50785 15.7779 0.636912 15.8616 0.77846 15.918C0.920008 15.9743 1.07127 16.0022 1.22361 16.0001H14.7756C14.9279 16.0022 15.0792 15.9743 15.2208 15.918C15.3623 15.8616 15.4914 15.7779 15.6006 15.6717C15.7098 15.5655 15.797 15.4388 15.8572 15.2988C15.9174 15.1589 15.9495 15.0084 15.9516 14.8561V1.14411C15.9495 0.991774 15.9174 0.84134 15.8572 0.7014C15.797 0.561459 15.7098 0.434755 15.6006 0.328521C15.4914 0.222288 15.3623 0.138608 15.2208 0.0822589C15.0792 0.0259099 14.9279 -0.00200383 14.7756 0.000111865ZM4.87161 13.3921H2.47161V6.19211H4.87161V13.3921ZM3.67161 5.18411C3.34062 5.18411 3.02318 5.05263 2.78914 4.81858C2.55509 4.58454 2.42361 4.2671 2.42361 3.93611C2.42361 3.60512 2.55509 3.28769 2.78914 3.05364C3.02318 2.8196 3.34062 2.68811 3.67161 2.68811C3.84736 2.66818 4.02535 2.6856 4.19391 2.73922C4.36247 2.79284 4.5178 2.88146 4.64973 2.99928C4.78167 3.1171 4.88723 3.26145 4.9595 3.4229C5.03178 3.58434 5.06914 3.75923 5.06914 3.93611C5.06914 4.113 5.03178 4.28788 4.9595 4.44933C4.88723 4.61077 4.78167 4.75513 4.64973 4.87294C4.5178 4.99076 4.36247 5.07938 4.19391 5.13301C4.02535 5.18663 3.84736 5.20404 3.67161 5.18411ZM13.5276 13.3921H11.1276V9.52811C11.1276 8.56011 10.7836 7.92811 9.91161 7.92811C9.64174 7.93009 9.37896 8.01474 9.15868 8.17065C8.93839 8.32656 8.7712 8.54625 8.67961 8.80011C8.617 8.98814 8.58988 9.18617 8.59961 9.38411V13.3841H6.19961V6.18411H8.59961V7.20011C8.81763 6.8218 9.13473 6.51013 9.51676 6.29867C9.89879 6.08722 10.3313 5.98399 10.7676 6.00011C12.3676 6.00011 13.5276 7.03211 13.5276 9.24811V13.3921Z" fill="#0072B1"/>
</g>
<defs>
<clipPath id="clip0_207_197">
<rect width="16" height="16" fill="white"/>
</clipPath>
</defs>
</svg>
