<svg width="35" height="35" viewBox="0 0 35 35" fill="none" xmlns="http://www.w3.org/2000/svg">
<path d="M15.6576 11.7649C18.8414 10.8494 20.6803 7.52625 19.7649 4.34239C18.8493 1.15854 15.5262 -0.68034 12.3424 0.235127C9.15853 1.15059 7.31966 4.47373 8.23513 7.65759C9.15059 10.8414 12.4737 12.6803 15.6576 11.7649Z" fill="#ED1C24"/>
<path d="M30.6576 19.7649C33.8415 18.8495 35.6803 15.5262 34.7649 12.3424C33.8495 9.15855 30.5262 7.31966 27.3424 8.23513C24.1585 9.15059 22.3197 12.4738 23.2351 15.6576C24.1507 18.8415 27.4738 20.6803 30.6576 19.7649Z" fill="#FFD656"/>
<path d="M22.6575 34.7649C25.8415 33.8493 27.6804 30.5263 26.7648 27.3423C25.8494 24.1585 22.5262 22.3196 19.3424 23.2352C16.1585 24.1506 14.3197 27.4736 15.2351 30.6576C16.1506 33.8414 19.4737 35.6803 22.6575 34.7649Z" fill="#00AC4E"/>
<path d="M7.65761 26.7649C10.8415 25.8495 12.6803 22.5262 11.7649 19.3424C10.8494 16.1586 7.52627 14.3197 4.34241 15.2351C1.15853 16.1507 -0.680339 19.4738 0.235126 22.6576C1.15059 25.8415 4.47373 27.6803 7.65761 26.7649Z" fill="#1A73E8"/>
</svg>
