<svg width="24" height="27" viewBox="0 0 24 27" fill="none" xmlns="http://www.w3.org/2000/svg">
<path d="M3.09087 25.6362C2.39087 25.6362 1.79141 25.3867 1.2925 24.8878C0.793594 24.3889 0.544564 23.7899 0.545412 23.0907V5.27255C0.545412 4.57255 0.794867 3.9731 1.29378 3.47419C1.79269 2.97528 2.39172 2.72625 3.09087 2.7271H8.4045C8.63784 1.98467 9.0939 1.37461 9.77269 0.896916C10.4515 0.419219 11.1939 0.180794 12 0.181643C12.8484 0.181643 13.607 0.420491 14.2756 0.898188C14.9442 1.37589 15.3947 1.98552 15.6272 2.7271H20.909C21.609 2.7271 22.2085 2.97655 22.7074 3.47546C23.2063 3.97437 23.4554 4.5734 23.4545 5.27255V23.0907C23.4545 23.7907 23.205 24.3902 22.7061 24.8891C22.2072 25.388 21.6082 25.637 20.909 25.6362H3.09087ZM3.09087 23.0907H20.909V5.27255H18.3636V9.09073H5.63632V5.27255H3.09087V23.0907ZM12 5.27255C12.3606 5.27255 12.663 5.15037 12.9074 4.90601C13.1518 4.66164 13.2735 4.35958 13.2727 3.99982C13.2727 3.63922 13.1505 3.33673 12.9061 3.09237C12.6618 2.84801 12.3597 2.72625 12 2.7271C11.6394 2.7271 11.3369 2.84928 11.0925 3.09364C10.8481 3.33801 10.7264 3.64007 10.7272 3.99982C10.7272 4.36043 10.8494 4.66292 11.0938 4.90728C11.3381 5.15164 11.6402 5.2734 12 5.27255Z" fill="#1A73E8"/>
</svg>
