<svg width="29" height="40" viewBox="0 0 29 40" fill="none" xmlns="http://www.w3.org/2000/svg">
<path d="M4.88795 38H23.8613C25.5629 38 26.9164 36.5903 26.7334 34.966C25.5517 24.5 18.4997 24.6731 18.4997 20C18.4997 15.3269 25.642 15.5865 26.7325 5.03404C26.9044 3.40885 25.5629 2 23.8613 2H4.88795C3.18638 2 1.84832 3.40885 2.01676 5.03404C3.10732 15.5865 10.2496 15.2404 10.2496 20C10.2496 24.7596 3.19755 24.5 2.01676 34.966C1.83286 36.5903 3.18638 38 4.88795 38Z" stroke="#1A73E8" stroke-width="3" stroke-linecap="round" stroke-linejoin="round"/>
<path d="M21.1151 34.625H7.66701C6.4625 34.625 6.12276 33.0781 6.96746 32.1191C9.01205 29.8125 13.139 28.1608 13.139 25.5156V16.75C13.139 15.0441 10.205 13.7422 8.38971 10.975C8.09013 10.5187 8.12024 9.875 8.88156 9.875H19.9021C20.5514 9.875 20.6919 10.5135 20.3962 10.9707C18.6072 13.7422 15.6098 15.0355 15.6098 16.75V25.5156C15.6098 28.1393 19.9113 29.5547 21.8177 32.1216C22.586 33.1563 22.3173 34.625 21.1151 34.625Z" fill="#1A73E8"/>
</svg>
